<svg width="20" height="21" viewBox="0 0 20 21" fill="none" xmlns="http://www.w3.org/2000/svg">
<path fill-rule="evenodd" clip-rule="evenodd" d="M19.02 17.6688C18.67 18.7468 18.496 19.2858 18.037 19.7748C17.802 20.0248 17.438 20.2898 17.127 20.4358C16.52 20.7218 15.857 20.7218 14.533 20.7218H1.7C1.045 20.7218 0.718 20.7218 0.477 20.5748C0.342512 20.4923 0.229433 20.3793 0.147 20.2448C7.45058e-08 20.0048 0 19.6768 0 19.0218V9.77578C0 9.12078 7.45058e-08 8.79378 0.147 8.55278C0.229433 8.41829 0.342512 8.30521 0.477 8.22278C0.718 8.07578 1.045 8.07578 1.7 8.07578H4C7.037 8.07578 7.768 3.54878 7.944 1.36878C8.007 0.584776 8.241 0.043776 9.126 0.00377605C9.981 -0.034224 11.151 0.197776 12 1.47178C13.348 3.49378 13.02 5.12878 12.542 7.51478C12.513 7.65678 12.559 7.72178 12.707 7.72178H15.021C16.929 7.72178 17.883 7.72178 18.618 8.18678C19.0239 8.45225 19.3641 8.8065 19.613 9.22278C20.047 9.97578 20.013 10.8218 19.943 12.5128C19.8812 14.2665 19.5704 16.0025 19.02 17.6688ZM11.456 4.39878C11.477 5.15478 11.318 5.98878 11.07 7.22578C11.015 7.46846 11.0161 7.7205 11.0732 7.96269C11.1304 8.20489 11.242 8.43084 11.3997 8.62335C11.5574 8.81585 11.7569 8.96982 11.9831 9.07352C12.2093 9.17723 12.4562 9.22793 12.705 9.22178C13.477 9.21578 14.249 9.22178 15.021 9.22178C16.006 9.22178 16.631 9.22378 17.107 9.27178C17.551 9.31778 17.718 9.39178 17.816 9.45378C17.995 9.56778 18.207 9.78878 18.313 9.97278C18.481 10.2638 18.52 10.5898 18.444 12.4528C18.3881 14.0698 18.1019 15.6706 17.594 17.2068C17.215 18.3728 17.128 18.5518 16.944 18.7478C16.81 18.881 16.6562 18.9926 16.488 19.0788C16.253 19.1888 15.988 19.2218 14.533 19.2218C11.189 19.2218 7.844 19.2298 4.5 19.2268V9.54878C6.635 9.31278 7.818 7.58478 8.43 6.11578C9.103 4.49878 9.345 2.64378 9.438 1.50578C10.802 1.59578 11.423 3.21278 11.456 4.39878ZM3.5 9.57478V19.2258C2.833 19.2258 2.167 19.2238 1.5 19.2218C1.49 16.0068 1.49 12.7908 1.5 9.57578C2.167 9.57378 2.833 9.57478 3.5 9.57578V9.57478Z" fill="white"/>
</svg>
