<svg width="14" height="14" viewBox="0 0 14 14" fill="none" xmlns="http://www.w3.org/2000/svg">
<path fill-rule="evenodd" clip-rule="evenodd" d="M13.6642 0.21934C13.8047 0.359965 13.8836 0.550589 13.8836 0.74934C13.8836 0.948091 13.8047 1.13871 13.6642 1.27934L8.00622 6.93634L13.6632 12.5933C13.7998 12.7349 13.8753 12.9243 13.8735 13.121C13.8717 13.3176 13.7927 13.5057 13.6536 13.6447C13.5145 13.7837 13.3263 13.8625 13.1297 13.8641C12.933 13.8657 12.7436 13.79 12.6022 13.6533L6.94622 7.99834L1.28922 13.6553C1.22 13.7269 1.13721 13.784 1.04569 13.8233C0.95417 13.8626 0.855746 13.8832 0.756161 13.884C0.656577 13.8848 0.557826 13.8658 0.465672 13.8281C0.373518 13.7903 0.289806 13.7346 0.21942 13.6641C0.149034 13.5937 0.0933837 13.5099 0.0557165 13.4177C0.0180493 13.3255 -0.00088054 13.2268 3.14519e-05 13.1272C0.000943444 13.0276 0.0216792 12.9292 0.0610285 12.8377C0.100378 12.7462 0.157553 12.6635 0.229217 12.5943L5.88422 6.93634L0.228217 1.27934C0.0916638 1.13782 0.0161558 0.948336 0.0179567 0.751688C0.0197576 0.555041 0.0987232 0.366968 0.237845 0.227977C0.376968 0.0889857 0.565115 0.0101976 0.761765 0.00858212C0.958414 0.00696664 1.14783 0.0826531 1.28922 0.21934L6.94622 5.87534L12.6032 0.21934C12.7438 0.0788894 12.9345 0 13.1332 0C13.332 0 13.5226 0.0788894 13.6632 0.21934H13.6642Z" fill="#A3A7BC"/>
</svg>
